<svg width="260" height="210" viewBox="0 0 260 210" fill="none" xmlns="http://www.w3.org/2000/svg">
  <ellipse cx="130" cy="184" rx="84" ry="12" fill="#FFE4CF"/>
  <circle cx="206" cy="76" r="4" fill="#FFB47A" opacity=".55"/>
  <circle cx="45" cy="54" r="3" fill="#FFB47A" opacity=".55"/>
  <path d="M34 165c22-26 38-31 55-17-13 25-32 34-55 17Z" fill="#FFB25E"/>
  <path d="M226 166c-24-25-42-29-58-13 16 24 35 31 58 13Z" fill="#FFB25E"/>
  <path d="M57 174c24-19 42-20 54-3-19 17-37 18-54 3Z" fill="#FFCF8E"/>
  <path d="M206 174c-26-18-44-18-55 0 20 16 38 16 55 0Z" fill="#FFCF8E"/>
  <g transform="rotate(-7 129 96)">
    <rect x="54" y="26" width="134" height="154" rx="8" fill="#FF7A2F"/>
    <rect x="62" y="33" width="118" height="138" rx="5" fill="white"/>
    <rect x="78" y="54" width="74" height="31" rx="4" fill="#F7D5BC"/>
    <path d="M106 107h44" stroke="#111827" stroke-width="3" stroke-linecap="round"/>
    <path d="M111 133h46" stroke="#111827" stroke-width="3" stroke-linecap="round"/>
    <text x="104" y="80" font-family="Arial, sans-serif" font-size="20" font-weight="700" fill="#111827">7 1</text>
    <text x="97" y="121" font-family="Arial, sans-serif" font-size="20" font-weight="700" fill="#111827">- 1 8</text>
    <text x="132" y="157" font-family="Arial, sans-serif" font-size="20" font-weight="700" fill="#111827">3</text>
    <path d="M97 33c-1-17 27-20 28 3" stroke="#5A6472" stroke-width="6" stroke-linecap="round"/>
    <rect x="91" y="26" width="44" height="16" rx="8" fill="#F2F4F7"/>
    <path d="M97 35c0-11 21-14 23 2" stroke="#111827" stroke-width="3" stroke-linecap="round"/>
  </g>
  <g transform="rotate(13 203 124)">
    <rect x="197" y="68" width="16" height="87" rx="7" fill="#F97316"/>
    <rect x="197" y="68" width="16" height="20" rx="7" fill="#FFE1C7"/>
    <path d="M198 154h14l-7 20-7-20Z" fill="#7C4A2D"/>
    <path d="M202 165h6l-3 9-3-9Z" fill="#111827"/>
    <path d="M197 94h16" stroke="#B94C14" stroke-width="3"/>
  </g>
</svg>
